<?xml version="1.0" encoding="UTF-8"?>
<svg width="365px" height="100px" viewBox="0 0 365 100" version="1.1" xmlns="http://www.w3.org/2000/svg" xmlns:xlink="http://www.w3.org/1999/xlink">
    <title>kujira-finder</title>
    <g id="kujira-finder" stroke="none" stroke-width="1" fill="none" fill-rule="evenodd">
        <g id="kujira" transform="translate(0.000000, 13.000000)" fill="#FFFFFF" fill-rule="nonzero">
            <polygon id="Path" points="9.44564047 53.8482239 9.44564047 36.6523143 14.1280947 31.1625404 32.212056 53.8482239 43.8374596 53.8482239 20.3444564 25.4305705 42.2228202 0 30.5166846 0 9.44564047 25.6727664 9.44564047 0 0 0 0 53.8482239"></polygon>
            <path d="M74.8116254,54.8170075 C90.3928956,54.8170075 98.0624327,45.9364909 98.0624327,32.5349839 L98.0624327,0 L88.5360603,0 L88.5360603,32.2927879 C88.5360603,40.8503767 83.7728741,46.4208827 74.8116254,46.4208827 C65.7696448,46.4208827 61.0064586,40.8503767 61.0064586,32.2927879 L61.0064586,0 L51.4800861,0 L51.4800861,32.6157158 C51.4800861,45.8557589 59.1496233,54.8170075 74.8116254,54.8170075 Z" id="Path"></path>
            <path d="M105.854236,75 C116.26866,75 124.018929,69.2680301 124.018929,56.9967707 L124.018929,0 L114.573289,0 L114.573289,56.8353068 C114.573289,62.7287406 110.94035,66.6038751 105.127648,66.6038751 C101.010318,66.6038751 98.1039671,64.5048439 95.9242039,62.1636168 L91.5646775,69.3487621 C95.3590801,73.3853606 100.28373,75 105.854236,75 Z" id="Path"></path>
            <polygon id="Path" points="149.974258 53.8482239 149.974258 0 140.528617 0 140.528617 53.8482239"></polygon>
            <path d="M190.138413,0 C200.795033,0 207.737982,6.94294941 207.737982,16.8729817 C207.737982,26.4800861 201.440889,31.6469322 194.982331,32.6964478 L208.141642,53.8482239 L197.242826,53.8482239 L185.294495,33.7459634 L175.929586,33.7459634 L175.929586,53.8482239 L166.483946,53.8482239 L166.483946,0 Z M188.846701,8.3153929 L175.929586,8.3153929 L175.929586,25.4305705 L188.846701,25.4305705 C194.175011,25.4305705 198.050146,22.0398278 198.050146,16.8729817 C198.050146,11.7061356 194.175011,8.3153929 188.846701,8.3153929 Z" id="Combined-Shape"></path>
            <path d="M249.516777,0 L270.668553,53.8482239 L259.931201,53.8482239 L255.975334,43.5145318 L231.271351,43.5145318 L227.315485,53.8482239 L216.578133,53.8482239 L237.729909,0 L249.516777,0 Z M243.623343,9.52637244 L233.935506,35.1991389 L253.311179,35.1991389 L243.623343,9.52637244 Z" id="Combined-Shape"></path>
        </g>
        <path d="M325.168553,0 C347.259943,0 365.168553,17.90861 365.168553,40 C365.168553,62.09139 347.259943,80 325.168553,80 C303.077163,80 285.168553,62.09139 285.168553,40 C285.168553,17.90861 303.077163,0 325.168553,0 Z M325.168553,3.73333333 C305.139026,3.73333333 288.901886,19.9704731 288.901886,40 C288.901886,60.0295269 305.139026,76.2666667 325.168553,76.2666667 C345.19808,76.2666667 361.435219,60.0295269 361.435219,40 C361.435219,19.9704731 345.19808,3.73333333 325.168553,3.73333333 Z" id="Oval" fill="#E53935" fill-rule="nonzero"></path>
        <path d="M348.696937,25.2869565 L348.696937,21.8956522 L337.954579,21.8956522 C337.37816,19.7043478 336.80174,17.773913 336.172919,16 L332.557199,16.626087 C333.18602,18.1913043 333.814841,19.9652174 334.39126,21.8956522 L323.020081,21.8956522 L323.020081,25.2869565 L348.696937,25.2869565 Z M321.18602,50.4869565 L321.18602,28.8347826 L315.893443,28.8347826 C316.99388,27.2173913 318.094317,25.2347826 319.194754,22.8347826 L319.194754,20.3304348 L310.548465,20.3304348 C311.020081,19.2869565 311.439295,18.2434783 311.858509,17.1478261 L308.504797,16.1043478 C306.932745,21.2173913 304.469863,25.3391304 301.168553,28.5217391 L301.954579,32.226087 C302.635802,31.6 303.317024,30.973913 303.945845,30.2956522 L303.945845,50.4869565 L321.18602,50.4869565 Z M312.277723,28.8347826 L305.255889,28.8347826 C306.618334,27.1652174 307.928378,25.2869565 309.081216,23.3043478 L315.683837,23.3043478 C314.530998,25.3913043 313.430561,27.2695652 312.277723,28.8347826 Z M333.867243,64 C336.48733,64 337.849775,62.5391304 337.849775,59.6695652 L337.849775,44.8 L346.181653,44.8 L346.181653,29.9826087 L325.797374,29.9826087 L325.797374,44.8 L334.181653,44.8 L334.181653,58.7826087 C334.181653,60.0869565 333.657636,60.7652174 332.609601,60.7652174 C331.404361,60.7652174 330.146719,60.6608696 328.889077,60.5043478 L329.622701,64 L333.867243,64 Z M311.072483,38.1217391 L307.194754,38.1217391 L307.194754,31.9130435 L311.072483,31.9130435 L311.072483,38.1217391 Z M317.937112,38.1217391 L314.111784,38.1217391 L314.111784,31.9130435 L317.937112,31.9130435 L317.937112,38.1217391 Z M342.618334,41.5130435 L329.360692,41.5130435 L329.360692,33.3217391 L342.618334,33.3217391 L342.618334,41.5130435 Z M317.937112,47.3565217 L314.111784,47.3565217 L314.111784,41.1478261 L317.937112,41.1478261 L317.937112,47.3565217 Z M311.072483,47.3565217 L307.194754,47.3565217 L307.194754,41.1478261 L311.072483,41.1478261 L311.072483,47.3565217 Z M346.39126,61.6 L349.168553,59.6695652 C347.753706,56.3304348 345.762439,52.4695652 343.142352,48.0347826 L340.365059,49.7043478 C342.880343,54.0347826 344.924011,58 346.39126,61.6 Z M324.434928,62.4869565 C326.740605,58.8869565 328.731871,54.6086957 330.408727,49.7043478 L327.369426,48.2434783 C325.744972,52.9391304 323.806107,57.0086957 321.605234,60.4521739 L324.434928,62.4869565 Z M320.085583,58.9391304 L322.653269,58.3130435 C321.919644,55.8086957 321.18602,53.6173913 320.347592,51.7391304 L317.88471,52.4695652 C318.723138,54.5565217 319.456762,56.6956522 320.085583,58.9391304 Z M314.530998,61.9652174 L317.255889,61.6521739 C316.941478,57.6869565 316.365059,54.5565217 315.526631,52.2608696 L312.906544,52.573913 C313.744972,54.7652174 314.268989,57.8956522 314.530998,61.9652174 Z M304.522264,63.373913 C305.622701,60.2956522 306.303924,56.8 306.618334,52.8347826 L303.78864,52.4695652 C303.526631,56.226087 302.793007,59.5652174 301.640168,62.4869565 L304.522264,63.373913 Z M308.924011,62.7478261 L311.648902,62.4347826 C311.544099,58.3130435 311.28209,55.026087 310.915278,52.626087 L308.399994,52.9391304 C308.662002,55.2347826 308.819208,58.5217391 308.924011,62.7478261 Z" id="鯨" fill="#E53935" fill-rule="nonzero"></path>
        <g id="FINDER" transform="translate(141.000000, 80.000000)" fill="#FFFFFF" fill-rule="nonzero">
            <polygon id="Path" points="3.276 18.676 3.276 10.612 12.6 10.612 12.6 7.728 3.276 7.728 3.276 2.884 12.796 2.884 12.796 0 0 0 0 18.676"></polygon>
            <polygon id="Path" points="26.412 18.676 26.412 0 23.136 0 23.136 18.676"></polygon>
            <polygon id="Path" points="53.972 18.676 53.972 0 50.696 0 50.696 12.964 41.148 0 37.788 0 37.788 18.676 41.064 18.676 41.064 5.348 50.808 18.676"></polygon>
            <path d="M72.292,18.676 C78.116,18.676 82.064,14.84 82.064,9.352 C82.064,3.864 78.116,0 72.292,0 L65.348,0 L65.348,18.676 L72.292,18.676 Z M72.292,15.792 L68.624,15.792 L68.624,2.884 L72.292,2.884 C76.464,2.884 78.704,5.74 78.704,9.352 C78.704,12.88 76.352,15.792 72.292,15.792 Z" id="Shape"></path>
            <polygon id="Path" points="105.424 18.676 105.424 15.792 95.904 15.792 95.904 10.612 105.228 10.612 105.228 7.728 95.904 7.728 95.904 2.884 105.424 2.884 105.424 0 92.628 0 92.628 18.676"></polygon>
            <path d="M130.632,18.676 L126.068,11.34 C128.308,10.976 130.492,9.184 130.492,5.852 C130.492,2.408 128.084,0 124.388,0 L116.184,0 L116.184,18.676 L119.46,18.676 L119.46,11.704 L122.708,11.704 L126.852,18.676 L130.632,18.676 Z M123.94,8.82 L119.46,8.82 L119.46,2.884 L123.94,2.884 C125.788,2.884 127.132,4.06 127.132,5.852 C127.132,7.644 125.788,8.82 123.94,8.82 Z" id="Shape"></path>
        </g>
    </g>
</svg>