<?xml version="1.0" encoding="UTF-8"?>
<svg width="271px" height="100px" viewBox="0 0 271 100" version="1.1" xmlns="http://www.w3.org/2000/svg" xmlns:xlink="http://www.w3.org/1999/xlink">
    <title>kujira-pilot</title>
    <g id="kujira-pilot" stroke="none" stroke-width="1" fill="none" fill-rule="evenodd">
        <g id="Group-6" transform="translate(64.000000, 67.000000)" fill="#FFFFFF" fill-rule="nonzero">
            <g id="Fuzion-Logo-and-wordmark-white" transform="translate(96.000000, 0.000000)">
                <g id="Group">
                    <path d="M26.59375,23.4065934 C27.4148347,23.4065934 28.0803571,22.7422896 28.0803571,21.9230769 C28.0803571,21.1038642 27.4148347,20.4395604 26.59375,20.4395604 C25.7728872,20.4395604 25.1071429,21.1038642 25.1071429,21.9230769 C25.1071429,22.7422896 25.7728872,23.4065934 26.59375,23.4065934 Z" id="Path"></path>
                    <path d="M22.2989962,23.4065934 C23.1201422,23.4065934 23.7857143,22.7422896 23.7857143,21.9230769 C23.7857143,21.1038642 23.1201422,20.4395604 22.2989962,20.4395604 C21.4780721,20.4395604 20.8125,21.1038642 20.8125,21.9230769 C20.8125,22.7422896 21.4780721,23.4065934 22.2989962,23.4065934 Z" id="Path"></path>
                    <path d="M17.6742181,30 C18.4951422,30 19.1607143,29.3356962 19.1607143,28.5164835 C19.1607143,27.6972708 18.4951422,27.032967 17.6742181,27.032967 C16.8530721,27.032967 16.1875,27.6972708 16.1875,28.5164835 C16.1875,29.3356962 16.8530721,30 17.6742181,30 Z" id="Path"></path>
                    <path d="M15.031139,26.7032967 C15.852285,26.7032967 16.5178571,26.0391637 16.5178571,25.2196702 C16.5178571,24.4003968 15.852285,23.7362637 15.031139,23.7362637 C14.210215,23.7362637 13.5446429,24.4003968 13.5446429,25.2196702 C13.5446429,26.0391637 14.210215,26.7032967 15.031139,26.7032967 Z" id="Path"></path>
                    <path d="M22.2991071,23.4065934 C23.1201918,23.4065934 23.7857143,22.7422896 23.7857143,21.9230769 C23.7857143,21.1038642 23.1201918,20.4395604 22.2991071,20.4395604 C21.4782444,20.4395604 20.8125,21.1038642 20.8125,21.9230769 C20.8125,22.7422896 21.4782444,23.4065934 22.2991071,23.4065934 Z" id="Path"></path>
                    <path d="M13.0491071,23.4065934 C13.8701918,23.4065934 14.5357143,22.7422896 14.5357143,21.9230769 C14.5357143,21.1036442 13.8701918,20.4395604 13.0491071,20.4395604 C12.2280224,20.4395604 11.5625,21.1036442 11.5625,21.9230769 C11.5625,22.7422896 12.2280224,23.4065934 13.0491071,23.4065934 Z" id="Path"></path>
                    <path d="M17.6742181,23.4065934 C18.4951422,23.4065934 19.1607143,22.7422896 19.1607143,21.9230769 C19.1607143,21.1036442 18.4951422,20.4395604 17.6742181,20.4395604 C16.8530721,20.4395604 16.1875,21.1036442 16.1875,21.9230769 C16.1875,22.7422896 16.8530721,23.4065934 17.6742181,23.4065934 Z" id="Path"></path>
                    <path d="M8.09375,28.021978 C8.9148347,28.021978 9.58035714,27.3576742 9.58035714,26.5384615 C9.58035714,25.7192489 8.9148347,25.0549451 8.09375,25.0549451 C7.27288721,25.0549451 6.60714286,25.7192489 6.60714286,26.5384615 C6.60714286,27.3576742 7.27288721,28.021978 8.09375,28.021978 Z" id="Path"></path>
                    <path d="M8.09375,23.4065934 C8.9148347,23.4065934 9.58035714,22.7424604 9.58035714,21.9229669 C9.58035714,21.1036935 8.9148347,20.4395604 8.09375,20.4395604 C7.27288721,20.4395604 6.60714286,21.1036935 6.60714286,21.9229669 C6.60714286,22.7424604 7.27288721,23.4065934 8.09375,23.4065934 Z" id="Path"></path>
                    <path d="M1.48659605,18.4615385 C2.30764482,18.4615385 2.97321429,17.7974054 2.97321429,16.9779119 C2.97321429,16.1586385 2.30764482,15.4945055 1.48659605,15.4945055 C0.665569469,15.4945055 0,16.1586385 0,16.9779119 C0,17.7974054 0.665569469,18.4615385 1.48659605,18.4615385 Z" id="Path"></path>
                    <path d="M4.79017857,16.4835165 C5.61126327,16.4835165 6.27678571,15.8193835 6.27678571,14.99989 C6.27678571,14.1806165 5.61126327,13.5164835 4.79017857,13.5164835 C3.96909387,13.5164835 3.30357143,14.1806165 3.30357143,14.99989 C3.30357143,15.8193835 3.96909387,16.4835165 4.79017857,16.4835165 Z" id="Path"></path>
                    <path d="M8.09375,23.4065934 C8.9148347,23.4065934 9.58035714,22.7422896 9.58035714,21.9230769 C9.58035714,21.1036442 8.9148347,20.4395604 8.09375,20.4395604 C7.27288721,20.4395604 6.60714286,21.1036442 6.60714286,21.9230769 C6.60714286,22.7422896 7.27288721,23.4065934 8.09375,23.4065934 Z" id="Path"></path>
                    <path d="M8.09375,13.8461538 C8.9148347,13.8461538 9.58035714,13.1820701 9.58035714,12.3626374 C9.58035714,11.5434247 8.9148347,10.8791209 8.09375,10.8791209 C7.27288721,10.8791209 6.60714286,11.5434247 6.60714286,12.3626374 C6.60714286,13.1820701 7.27288721,13.8461538 8.09375,13.8461538 Z" id="Path"></path>
                    <path d="M8.09375,18.4615385 C8.9148347,18.4615385 9.58035714,17.7974054 9.58035714,16.9779119 C9.58035714,16.1586385 8.9148347,15.4945055 8.09375,15.4945055 C7.27288721,15.4945055 6.60714286,16.1586385 6.60714286,16.9779119 C6.60714286,17.7974054 7.27288721,18.4615385 8.09375,18.4615385 Z" id="Path"></path>
                    <path d="M4.1294199,9.56043956 C4.95052912,9.56043956 5.61607143,8.89630654 5.61607143,8.07681305 C5.61607143,7.25753961 4.95052912,6.59340659 4.1294199,6.59340659 C3.30842164,6.59340659 2.64285714,7.25753961 2.64285714,8.07681305 C2.64285714,8.89630654 3.30842164,9.56043956 4.1294199,9.56043956 Z" id="Path"></path>
                    <path d="M8.09375,9.56043956 C8.9148347,9.56043956 9.58035714,8.89630654 9.58035714,8.07681305 C9.58035714,7.25753961 8.9148347,6.59340659 8.09375,6.59340659 C7.2726653,6.59340659 6.60714286,7.25753961 6.60714286,8.07681305 C6.60714286,8.89630654 7.2726653,9.56043956 8.09375,9.56043956 Z" id="Path"></path>
                    <path d="M13.0492181,2.96703297 C13.8701422,2.96703297 14.5357143,2.3028244 14.5357143,1.48350548 C14.5357143,0.664186559 13.8701422,0 13.0492181,0 C12.2280721,0 11.5625,0.664186559 11.5625,1.48350548 C11.5625,2.3028244 12.2280721,2.96703297 13.0492181,2.96703297 Z" id="Path"></path>
                    <path d="M15.3616071,6.26373626 C16.1826918,6.26373626 16.8482143,5.59962295 16.8482143,4.78015376 C16.8482143,3.96090463 16.1826918,3.2967033 15.3616071,3.2967033 C14.5407444,3.2967033 13.875,3.96090463 13.875,4.78015376 C13.875,5.59962295 14.5407444,6.26373626 15.3616071,6.26373626 Z" id="Path"></path>
                    <path d="M8.09375,9.56043956 C8.9148347,9.56043956 9.58035714,8.89630654 9.58035714,8.07681305 C9.58035714,7.25753961 8.9148347,6.59340659 8.09375,6.59340659 C7.27288721,6.59340659 6.60714286,7.25753961 6.60714286,8.07681305 C6.60714286,8.89630654 7.27288721,9.56043956 8.09375,9.56043956 Z" id="Path"></path>
                    <path d="M17.6742181,9.56043956 C18.4951422,9.56043956 19.1607143,8.89630654 19.1607143,8.07681305 C19.1607143,7.25753961 18.4951422,6.59340659 17.6742181,6.59340659 C16.8530721,6.59340659 16.1875,7.25753961 16.1875,8.07681305 C16.1875,8.89630654 16.8530721,9.56043956 17.6742181,9.56043956 Z" id="Path"></path>
                    <path d="M13.0492181,9.56043956 C13.8701422,9.56043956 14.5357143,8.89630654 14.5357143,8.07681305 C14.5357143,7.25753961 13.8701422,6.59340659 13.0492181,6.59340659 C12.2280721,6.59340659 11.5625,7.25753961 11.5625,8.07681305 C11.5625,8.89630654 12.2280721,9.56043956 13.0492181,9.56043956 Z" id="Path"></path>
                    <path d="M22.2991071,4.94505495 C23.1201918,4.94505495 23.7857143,4.28074621 23.7857143,3.46152746 C23.7857143,2.64222069 23.1201918,1.97802198 22.2991071,1.97802198 C21.4782444,1.97802198 20.8125,2.64222069 20.8125,3.46152746 C20.8125,4.28074621 21.4782444,4.94505495 22.2991071,4.94505495 Z" id="Path"></path>
                    <path d="M22.2991071,9.56043956 C23.1201918,9.56043956 23.7857143,8.89630654 23.7857143,8.07703311 C23.7857143,7.25753961 23.1201918,6.59340659 22.2991071,6.59340659 C21.4782444,6.59340659 20.8125,7.25753961 20.8125,8.07703311 C20.8125,8.89630654 21.4782444,9.56043956 22.2991071,9.56043956 Z" id="Path"></path>
                    <path d="M28.906361,14.5054945 C29.727285,14.5054945 30.3928571,13.8413615 30.3928571,13.021868 C30.3928571,12.2025946 29.727285,11.5384615 28.906361,11.5384615 C28.085215,11.5384615 27.4196429,12.2025946 27.4196429,13.021868 C27.4196429,13.8413615 28.085215,14.5054945 28.906361,14.5054945 Z" id="Path"></path>
                    <path d="M25.6025676,16.4835165 C26.4237136,16.4835165 27.0892857,15.8193835 27.0892857,15.00011 C27.0892857,14.1806165 26.4237136,13.5164835 25.6025676,13.5164835 C24.7816435,13.5164835 24.1160714,14.1806165 24.1160714,15.00011 C24.1160714,15.8193835 24.7816435,16.4835165 25.6025676,16.4835165 Z" id="Path"></path>
                    <path d="M22.2991071,9.56043956 C23.1201918,9.56043956 23.7857143,8.89635579 23.7857143,8.07692308 C23.7857143,7.2577104 23.1201918,6.59340659 22.2991071,6.59340659 C21.4782444,6.59340659 20.8125,7.2577104 20.8125,8.07692308 C20.8125,8.89635579 21.4782444,9.56043956 22.2991071,9.56043956 Z" id="Path"></path>
                    <path d="M22.2991071,19.1208791 C23.1201918,19.1208791 23.7857143,18.4565753 23.7857143,17.6373626 C23.7857143,16.8179299 23.1201918,16.1538462 22.2991071,16.1538462 C21.4782444,16.1538462 20.8125,16.8179299 20.8125,17.6373626 C20.8125,18.4565753 21.4782444,19.1208791 22.2991071,19.1208791 Z" id="Path"></path>
                    <path d="M22.2991071,14.5054945 C23.1201918,14.5054945 23.7857143,13.8413615 23.7857143,13.021868 C23.7857143,12.2025946 23.1201918,11.5384615 22.2991071,11.5384615 C21.4782444,11.5384615 20.8125,12.2025946 20.8125,13.021868 C20.8125,13.8413615 21.4782444,14.5054945 22.2991071,14.5054945 Z" id="Path"></path>
                </g>
                <polygon id="Path" points="49.2232143 6.59340659 49.2232143 9.82302832 41.7123096 9.82302832 41.7123096 14.1911067 47.8675158 14.1911067 47.8675158 17.4222264 41.7123096 17.4222264 41.7123096 24.0659341 38.3214286 24.0659341 38.3214286 6.59340659"></polygon>
                <path d="M63.0982143,10.8791209 L63.0982143,18.0831293 C63.0982143,19.878139 62.5232804,21.3091845 61.4031141,22.4263083 C60.2816748,23.519252 58.8725564,24.0659341 57.1776683,24.0659341 C55.4825681,24.0659341 53.9947411,23.519252 52.8747869,22.4263083 C51.7533476,21.3348365 51.2053571,19.878139 51.2053571,18.0831293 L51.2053571,10.8791209 L54.7258194,10.8791209 L54.7258194,18.3699272 C54.7258194,19.8539588 55.7428795,20.8428226 57.1759711,20.8428226 C58.5320513,20.8428226 59.5749941,19.8539588 59.5749941,18.3699272 L59.5749941,10.8791209 L63.0952441,10.8791209 L63.0982143,10.8791209 Z" id="Path"></path>
                <path d="M79.961108,8.63700115 C78.6782343,8.63700115 77.6339286,7.69936727 77.6339286,6.47418672 C77.6339286,5.24921683 78.6782343,4.28571429 79.961108,4.28571429 C81.2441992,4.28571429 82.2589286,5.22351669 82.2589286,6.47418672 C82.2589286,7.72506742 81.2426769,8.63700115 79.961108,8.63700115 Z M81.7515639,11.1659373 L81.7515639,24.0659341 L78.1428156,24.0659341 L78.1428156,11.1659373 L81.7515639,11.1659373 Z" id="Shape"></path>
                <path d="M95.4672822,12.8396673 C96.7921121,14.1204899 97.4553571,15.7153889 97.4553571,17.6243642 C97.4553571,19.5333395 96.7921121,21.1282385 95.4672822,22.4348467 C94.140792,23.7414549 92.5329001,24.3956044 90.6452664,24.3956044 C88.7578403,24.3956044 87.1499484,23.7414549 85.8502288,22.4606322 C84.548849,21.154024 83.9107143,19.53186 83.9107143,17.6243642 C83.9107143,15.7168684 84.5739593,14.1204899 85.8753391,12.8396673 C87.1750587,11.5315796 88.7829507,10.8791209 90.6705843,10.8791209 C92.5580104,10.8791209 94.1391318,11.5315796 95.4672822,12.8396673 Z M87.4060324,17.6501497 C87.4060324,19.7170086 88.7578403,21.154024 90.6705843,21.154024 C92.5833283,21.154024 93.9349287,19.6624785 93.9349287,17.6501497 C93.9349287,15.6380323 92.5314474,14.0947044 90.6705843,14.0947044 C88.8095137,14.0947044 87.4060324,15.5849817 87.4060324,17.6501497 Z" id="Shape"></path>
                <polygon id="Path" points="75.3214286 21.1810374 69.7341783 21.1810374 75.3214286 13.3745094 75.3214286 11.5384615 65.7410714 11.5384615 65.7410714 14.4231536 71.0083919 14.4231536 65.7410714 21.7217254 65.7410714 24.0659341 75.3214286 24.0659341"></polygon>
                <path d="M99.1071429,24.0659341 L99.1071429,16.8619256 C99.1071429,15.066916 99.6822889,13.6358705 100.802243,12.5187466 C101.923682,11.425803 103.332801,10.8791209 105.027901,10.8791209 C106.723001,10.8791209 108.210616,11.425803 109.330782,12.5187466 C110.452222,13.6102185 111,15.066916 111,16.8619256 L111,24.0659341 L107.47975,24.0659341 L107.47975,16.5751278 C107.47975,15.0910962 106.46269,14.1022324 105.029386,14.1022324 C103.673306,14.1022324 102.630575,15.0910962 102.630575,16.5751278 L102.630575,24.0659341 L99.110113,24.0659341 L99.1071429,24.0659341 Z" id="Path"></path>
            </g>
            <g id="kujira" transform="translate(0.000000, 7.000000)">
                <polygon id="Path" points="3.07097501 17.2314316 3.07097501 11.7287406 4.59333869 9.97201292 10.4728122 17.2314316 14.2524738 17.2314316 6.61440772 8.13778256 13.7275208 0 9.92161158 0 3.07097501 8.21528525 3.07097501 0 0 0 0 17.2314316"></polygon>
                <path d="M24.322822,17.5414424 C29.3886184,17.5414424 31.8821451,14.6996771 31.8821451,10.4111948 L31.8821451,0 L28.7849225,0 L28.7849225,10.3336921 C28.7849225,13.0721206 27.2363111,14.8546825 24.322822,14.8546825 C21.3830853,14.8546825 19.8344739,13.0721206 19.8344739,10.3336921 L19.8344739,0 L16.7372513,0 L16.7372513,10.4370291 C16.7372513,14.6738428 19.230778,17.5414424 24.322822,17.5414424 Z" id="Path"></path>
                <path d="M34.4154232,24 C37.80137,24 40.3211444,22.1657696 40.3211444,18.2389666 L40.3211444,0 L37.2501694,0 L37.2501694,18.1872982 C37.2501694,20.073197 36.0690251,21.31324 34.1791943,21.31324 C32.8405642,21.31324 31.8956488,20.6415501 31.1869623,19.8923574 L29.7695892,22.1916039 C31.0032287,23.4833154 32.6043354,24 34.4154232,24 Z" id="Path"></path>
                <polygon id="Path" points="48.7597637 17.2314316 48.7597637 0 45.6887887 0 45.6887887 17.2314316"></polygon>
                <path d="M61.8179695,0 C65.2826592,0 67.5399571,2.22174381 67.5399571,5.39935414 C67.5399571,8.47362756 65.4926404,10.1270183 63.3928284,10.4628633 L67.6711953,17.2314316 L64.1277626,17.2314316 L60.2431105,10.7987083 L57.1983831,10.7987083 L57.1983831,17.2314316 L54.1274081,17.2314316 L54.1274081,0 Z M61.3980071,2.66092573 L57.1983831,2.66092573 L57.1983831,8.13778256 L61.3980071,8.13778256 C63.1303519,8.13778256 64.3902391,7.05274489 64.3902391,5.39935414 C64.3902391,3.7459634 63.1303519,2.66092573 61.3980071,2.66092573 Z" id="Combined-Shape"></path>
                <path d="M81.1231158,0 L88,17.2314316 L84.5090626,17.2314316 L83.2229278,13.9246502 L75.191147,13.9246502 L73.9050121,17.2314316 L70.4140747,17.2314316 L77.2909589,0 L81.1231158,0 Z M79.2070374,3.04843918 L76.0573194,11.2637244 L82.3567553,11.2637244 L79.2070374,3.04843918 Z" id="Combined-Shape"></path>
            </g>
        </g>
        <path d="M10.881,35.646 L10.881,55.614 L0,55.614 L0,1.014 L22.269,1.014 C28.691,1.014 33.6245,2.561 37.0695,5.655 C40.5145,8.749 42.237,12.987 42.237,18.369 C42.237,23.699 40.5145,27.911 37.0695,31.005 C33.6245,34.099 28.717,35.646 22.347,35.646 L10.881,35.646 Z M10.881,11.037 L10.881,25.701 L22.074,25.701 C28.08,25.701 31.083,23.257 31.083,18.369 C31.083,13.481 28.08,11.037 22.074,11.037 L10.881,11.037 Z" id="Shape" fill="#FFFFFF" fill-rule="nonzero"></path>
        <polygon id="Path" fill="#FFFFFF" fill-rule="nonzero" points="74.4 55.614 63.519 55.614 63.519 1.014 74.4 1.014"></polygon>
        <polygon id="Path" fill="#FFFFFF" fill-rule="nonzero" points="138.543 55.614 98.802 55.614 98.802 1.014 109.683 1.014 109.683 45.435 138.543 45.435"></polygon>
        <path d="M181.665,0 C187.177,0 192.1235,1.2155 196.5045,3.6465 C200.8855,6.0775 204.2915,9.451 206.7225,13.767 C209.1535,18.083 210.369,22.932 210.369,28.314 C210.369,33.696 209.1535,38.545 206.7225,42.861 C204.2915,47.177 200.8855,50.5505 196.5045,52.9815 C192.1235,55.4125 187.177,56.628 181.665,56.628 C180.273546,56.628 178.915543,56.548006 177.590993,56.3880181 L183.331175,52.9886271 C185.29892,51.8206291 186.502928,49.7092481 186.502928,47.418175 L186.502928,39.3230503 C198.336352,32.2252162 198.767639,21.2100965 197.52769,14.5228586 C197.339002,13.4788481 196.53034,12.6666402 195.479079,12.4730221 L195.016672,12.3912059 C188.295402,11.258865 177.615199,11.9317632 170.599237,23.4203081 L162.584495,23.4203081 C160.295981,23.4203081 158.18088,24.7051059 157.016406,26.6727334 L153.322316,32.903722 C153.107439,31.4132417 153,29.8833344 153,28.314 C153,24.284 153.7085,20.514 155.1255,17.004 C156.5425,13.494 158.499,10.4975 160.995,8.0145 C163.491,5.5315 166.52,3.575 170.082,2.145 C173.644,0.715 177.505,0 181.665,0 Z M186.502928,19.9073295 C188.488643,19.9073295 190.096982,21.5155729 190.096982,23.5011695 C190.096982,25.4867661 188.488643,27.0950096 186.502928,27.0950096 C184.517213,27.0950096 182.908873,25.4867661 182.908873,23.5011695 C182.908873,21.5155729 184.517213,19.9073295 186.502928,19.9073295 Z" id="Shape" fill="#E53935" fill-rule="nonzero"></path>
        <polygon id="Path" fill="#FFFFFF" fill-rule="nonzero" points="270.534 11.193 253.608 11.193 253.608 55.614 242.727 55.614 242.727 11.193 225.801 11.193 225.801 1.014 270.534 1.014"></polygon>
        <path d="M166.960257,54.2285019 C162.512614,58.675879 152.042792,57.957111 152.042792,57.957111 C152.042792,57.957111 151.324682,47.4091904 155.771965,43.0426748 C158.861953,39.9519723 163.86937,39.9519723 166.960257,43.0426748 C170.051143,46.1333772 170.051143,51.1377995 166.960257,54.2285019 Z M162.764198,47.238483 C161.730907,46.2142386 160.069556,46.2142386 159.042554,47.238483 C157.563601,48.7209421 157.802606,52.1979823 157.802606,52.1979823 C157.802606,52.1979823 161.28165,52.4405665 162.764198,50.9581075 C163.788503,49.9338631 163.788503,48.2717121 162.764198,47.238483 Z" id="Shape" fill="#E53935" fill-rule="nonzero"></path>
    </g>
</svg>