<?xml version="1.0" encoding="UTF-8"?>
<svg width="80px" height="80px" viewBox="0 0 80 80" version="1.1" xmlns="http://www.w3.org/2000/svg" xmlns:xlink="http://www.w3.org/1999/xlink">
    <title>Shape</title>
    <g id="symbols" stroke="none" stroke-width="1" fill="none" fill-rule="evenodd">
        <path d="M40,0 C62.09139,0 80,17.90861 80,40 C80,62.09139 62.09139,80 40,80 C17.90861,80 0,62.09139 0,40 C0,17.90861 17.90861,0 40,0 Z M63.3874064,18.6239422 C60.6024372,17.3039076 57.6700023,16.7804851 54.5987443,17.0835192 C51.6248515,17.3769652 48.8816103,18.4248904 46.2085909,19.6876672 C43.5887779,20.9254613 41.0029956,22.239284 38.3542837,23.4117178 C35.2622293,24.7805025 32.048232,25.3715809 28.6284308,24.8912369 C24.5500303,24.3183891 20.4384095,24.0592437 16.314905,24.3177139 L15.6421312,24.3635923 C14.4091289,24.4582885 13.1840104,24.6316656 12.0590594,25.2212793 C11.2078903,25.6673227 11.081356,26.345098 11.7760116,27.0100443 C12.2566257,27.4699971 12.8089471,27.9240079 13.41461,28.1720799 C15.0950715,28.8601859 16.798777,29.4910173 18.4964436,30.1371548 L20.1910127,30.7910826 C21.1271232,31.1592068 22.0887566,31.5157174 22.9365497,32.0419757 C24.1694822,32.8069881 24.5261279,33.9768561 24.1550327,35.3879089 L23.9503092,36.1542717 C24.8499584,35.388179 25.628475,34.5881908 26.5400078,33.9907654 C27.3112321,33.4853036 28.2081804,33.1106973 29.1012125,32.8687022 C29.9797951,32.6306234 30.4864724,33.2565426 30.2440722,34.1383662 C30.1442762,34.5012238 29.9757439,34.8548986 29.7849297,35.1814299 C29.1683284,36.2370524 28.2812381,37.0319091 27.2277762,37.6239328 C26.0724927,38.2730792 24.8953325,38.8856293 23.711015,39.480894 C22.2188019,40.2307817 21.0074761,41.2434609 20.3341571,42.8192649 C18.6528855,46.7537107 17.6601924,50.8227933 17.8527622,55.1367069 C18.1177144,61.0720686 20.3973568,66.1218255 24.6044522,70.2771999 C25.5826957,71.2434247 26.7787619,72.0061414 27.939447,72.7627812 C28.4731326,73.1106491 29.1750804,73.0776989 29.7229454,72.6521819 C30.2316483,72.2569142 30.0826971,71.6685367 29.9964053,71.1437638 C29.9273989,70.725404 29.7850647,70.3170373 29.6525886,69.9115065 C29.2690696,68.7374522 28.8415269,67.576767 28.4919035,66.3929897 C28.0351917,64.8466248 27.7957625,63.2664995 28.1994027,61.6684137 C28.728767,59.5729685 30.1569701,58.2103957 32.0125809,57.2792817 C33.0109457,56.7782763 34.0945219,56.4493142 35.1224609,56.0032708 C35.3606748,55.8999637 35.6661396,55.6512166 35.6907172,55.4402811 C35.7155649,55.22732 35.4824826,54.8905255 35.2695215,54.7629109 C34.832796,54.5010647 34.3508315,54.2740592 33.8579285,54.1529266 C30.5035063,53.3285005 27.3944422,53.8392556 24.5637973,55.7795135 L24.2615808,55.9928726 C24.1122245,56.1011762 23.9544955,56.1981363 23.7725941,56.3189988 C23.2001515,52.9503785 24.4091816,51.1298786 27.6665273,50.515573 C29.2983737,50.2079475 30.9576336,50.0377947 32.608926,49.8433344 C35.7716073,49.471294 38.8995829,48.9399041 41.7315467,47.3947546 C43.1018168,46.6470276 44.3678347,45.7082163 45.6957017,44.8463789 L45.679598,45.048986 L45.6701788,45.1309122 C45.3360851,47.6245959 44.9251526,50.1113926 44.6996326,52.6147994 C44.5926795,53.8031681 44.7340683,55.0431229 44.9560772,56.2235241 C45.1667426,57.3443719 46.0040024,57.6029772 46.927554,56.9258771 C47.4286945,56.558293 47.8901326,56.1059026 48.2763525,55.6181313 C50.3672063,52.9772518 51.7534114,49.9593354 52.8491414,46.802866 C53.7225924,44.2867652 54.3951011,41.7267759 54.182005,39.0160797 C54.1686358,38.8445765 54.3355476,38.6064977 54.4866595,38.481989 C58.0379915,35.5571164 60.7142519,31.952713 62.722325,27.840417 C63.7734912,25.6878491 64.562541,23.4473689 64.6681438,21.0175599 C64.714058,19.9627476 64.3849609,19.0968589 63.3874064,18.6239422 Z M57.134021,26.2744711 C57.8388047,25.9900728 58.2408244,26.2715002 58.1670915,27.034622 C58.1313054,27.4059872 58.0234069,27.7876156 57.8664883,28.1268409 C57.1063374,29.7700307 55.9403856,31.0853389 54.4997586,32.1647288 C54.3220434,32.2977451 54.1224515,32.4117204 53.9169177,32.4955815 C53.240898,32.7714721 52.8784455,32.5148925 52.8899241,31.5925563 L53.0158555,31.0875106 C53.0573402,30.9354313 53.1094443,30.7723889 53.1791838,30.6172836 C53.9223194,28.9642357 55.0568064,27.6281311 56.5455084,26.5956007 C56.7283551,26.4687964 56.927947,26.3576569 57.134021,26.2744711 Z" id="Shape" fill="#E53935"></path>
    </g>
</svg>