<?xml version="1.0" encoding="UTF-8"?>
<svg width="365px" height="88px" viewBox="0 0 365 88" version="1.1" xmlns="http://www.w3.org/2000/svg" xmlns:xlink="http://www.w3.org/1999/xlink">
    <title>kujira-bow</title>
    <g id="kujira-bow" stroke="none" stroke-width="1" fill="none" fill-rule="evenodd">
        <g id="kujira" transform="translate(-0.000000, 13.000000)" fill="#FFFFFF" fill-rule="nonzero">
            <polygon id="Path" points="9.44564047 53.8482239 9.44564047 36.6523143 14.1280947 31.1625404 32.212056 53.8482239 43.8374596 53.8482239 20.3444564 25.4305705 42.2228202 0 30.5166846 0 9.44564047 25.6727664 9.44564047 0 0 0 0 53.8482239"></polygon>
            <path d="M74.8116254,54.8170075 C90.3928956,54.8170075 98.0624327,45.9364909 98.0624327,32.5349839 L98.0624327,0 L88.5360603,0 L88.5360603,32.2927879 C88.5360603,40.8503767 83.7728741,46.4208827 74.8116254,46.4208827 C65.7696448,46.4208827 61.0064586,40.8503767 61.0064586,32.2927879 L61.0064586,0 L51.4800861,0 L51.4800861,32.6157158 C51.4800861,45.8557589 59.1496233,54.8170075 74.8116254,54.8170075 Z" id="Path"></path>
            <path d="M105.854236,75 C116.26866,75 124.018929,69.2680301 124.018929,56.9967707 L124.018929,0 L114.573289,0 L114.573289,56.8353068 C114.573289,62.7287406 110.94035,66.6038751 105.127648,66.6038751 C101.010318,66.6038751 98.1039671,64.5048439 95.9242039,62.1636168 L91.5646775,69.3487621 C95.3590801,73.3853606 100.28373,75 105.854236,75 Z" id="Path"></path>
            <polygon id="Path" points="149.974258 53.8482239 149.974258 0 140.528617 0 140.528617 53.8482239"></polygon>
            <path d="M190.138413,0 C200.795033,0 207.737982,6.94294941 207.737982,16.8729817 C207.737982,26.4800861 201.440889,31.6469322 194.982331,32.6964478 L208.141642,53.8482239 L197.242826,53.8482239 L185.294495,33.7459634 L175.929586,33.7459634 L175.929586,53.8482239 L166.483946,53.8482239 L166.483946,0 Z M188.846701,8.3153929 L175.929586,8.3153929 L175.929586,25.4305705 L188.846701,25.4305705 C194.175011,25.4305705 198.050146,22.0398278 198.050146,16.8729817 C198.050146,11.7061356 194.175011,8.3153929 188.846701,8.3153929 Z" id="Combined-Shape"></path>
            <path d="M249.516777,0 L270.668553,53.8482239 L259.931201,53.8482239 L255.975334,43.5145318 L231.271351,43.5145318 L227.315485,53.8482239 L216.578133,53.8482239 L237.729909,0 L249.516777,0 Z M243.623343,9.52637244 L233.935506,35.1991389 L253.311179,35.1991389 L243.623343,9.52637244 Z" id="Combined-Shape"></path>
        </g>
        <g id="kujira-bow-round" transform="translate(285.168553, 0.000000)" fill="#E53935" fill-rule="nonzero">
            <path d="M40,0 C62.09139,0 80,17.90861 80,40 C80,62.09139 62.09139,80 40,80 C17.90861,80 0,62.09139 0,40 C0,17.90861 17.90861,0 40,0 Z M40,3.73333333 C19.9704731,3.73333333 3.73333333,19.9704731 3.73333333,40 C3.73333333,60.0295269 19.9704731,76.2666667 40,76.2666667 C60.0295269,76.2666667 76.2666667,60.0295269 76.2666667,40 C76.2666667,19.9704731 60.0295269,3.73333333 40,3.73333333 Z" id="Oval"></path>
            <g id="BOW" transform="translate(11.892000, 31.720000)">
                <path d="M8.688,16.272 L0,16.272 L0,0.264 L8.424,0.264 C9.88,0.264 11.012,0.66 11.82,1.452 C12.628,2.244 13.032,3.208 13.032,4.344 C13.032,5.304 12.768,6.116 12.24,6.78 C11.712,7.444 11.056,7.856 10.272,8.016 C11.136,8.144 11.864,8.58 12.456,9.324 C13.048,10.068 13.344,10.936 13.344,11.928 C13.344,13.192 12.94,14.232 12.132,15.048 C11.324,15.864 10.176,16.272 8.688,16.272 Z M7.68,6.624 C8.256,6.624 8.712,6.472 9.048,6.168 C9.384,5.864 9.552,5.456 9.552,4.944 C9.552,4.448 9.384,4.044 9.048,3.732 C8.712,3.42 8.256,3.264 7.68,3.264 L3.408,3.264 L3.408,6.624 L7.68,6.624 Z M7.824,13.272 C8.464,13.272 8.964,13.112 9.324,12.792 C9.684,12.472 9.864,12.024 9.864,11.448 C9.864,10.92 9.684,10.484 9.324,10.14 C8.964,9.796 8.464,9.624 7.824,9.624 L3.408,9.624 L3.408,13.272 L7.824,13.272 Z" id="Shape"></path>
                <path d="M24.52,16.56 C22.088,16.56 20.084,15.784 18.508,14.232 C16.932,12.68 16.144,10.696 16.144,8.28 C16.144,5.864 16.932,3.88 18.508,2.328 C20.084,0.776 22.088,0 24.52,0 C26.936,0 28.932,0.78 30.508,2.34 C32.084,3.9 32.872,5.88 32.872,8.28 C32.872,10.68 32.084,12.66 30.508,14.22 C28.932,15.78 26.936,16.56 24.52,16.56 Z M20.992,12.048 C21.888,13.04 23.064,13.536 24.52,13.536 C25.976,13.536 27.148,13.04 28.036,12.048 C28.924,11.056 29.368,9.8 29.368,8.28 C29.368,6.76 28.924,5.504 28.036,4.512 C27.148,3.52 25.976,3.024 24.52,3.024 C23.048,3.024 21.868,3.52 20.98,4.512 C20.092,5.504 19.648,6.76 19.648,8.28 C19.648,9.8 20.096,11.056 20.992,12.048 Z" id="Shape"></path>
                <polygon id="Path" points="51.656 16.272 48.032 16.272 45.224 5.28 42.44 16.272 38.816 16.272 34.232 0.264 38.048 0.264 40.856 11.832 43.904 0.264 46.568 0.264 49.592 11.832 52.4 0.264 56.216 0.264"></polygon>
            </g>
        </g>
    </g>
</svg>