<?xml version="1.0" encoding="UTF-8"?>
<svg width="81px" height="80px" viewBox="0 0 81 80" version="1.1" xmlns="http://www.w3.org/2000/svg" xmlns:xlink="http://www.w3.org/1999/xlink">
    <title>Group</title>
    <g id="symbols" stroke="none" stroke-width="1" fill="none" fill-rule="evenodd">
        <g id="kujira-pod" transform="translate(-285.000000, 0.000000)" fill="#E53935" fill-rule="nonzero">
            <g id="Group" transform="translate(285.168553, 0.000000)">
                <path d="M40,0 C62.09139,0 80,17.90861 80,40 C80,62.09139 62.09139,80 40,80 C17.90861,80 0,62.09139 0,40 C0,17.90861 17.90861,0 40,0 Z M40,3.73333333 C19.9704731,3.73333333 3.73333333,19.9704731 3.73333333,40 C3.73333333,60.0295269 19.9704731,76.2666667 40,76.2666667 C60.0295269,76.2666667 76.2666667,60.0295269 76.2666667,40 C76.2666667,19.9704731 60.0295269,3.73333333 40,3.73333333 Z" id="Oval"></path>
                <g id="POD" transform="translate(10.902000, 30.340000)">
                    <path d="M3.976,18.984 L0,18.984 L0,0.308 L8.736,0.308 C10.696,0.308 12.2313333,0.882 13.342,2.03 C14.4526667,3.178 15.008,4.61066667 15.008,6.328 C15.008,8.02666667 14.448,9.45 13.328,10.598 C12.208,11.746 10.6773333,12.32 8.736,12.32 L3.976,12.32 L3.976,18.984 Z M8.176,8.82 C8.97866667,8.82 9.64133333,8.59133333 10.164,8.134 C10.6866667,7.67666667 10.948,7.07466667 10.948,6.328 C10.948,5.56266667 10.6866667,4.95133333 10.164,4.494 C9.64133333,4.03666667 8.97866667,3.808 8.176,3.808 L3.976,3.808 L3.976,8.82 L8.176,8.82 Z" id="Shape"></path>
                    <path d="M27.376,19.32 C24.5386667,19.32 22.2006667,18.4146667 20.362,16.604 C18.5233333,14.7933333 17.604,12.4786667 17.604,9.66 C17.604,6.84133333 18.5233333,4.52666667 20.362,2.716 C22.2006667,0.905333333 24.5386667,0 27.376,0 C30.1946667,0 32.5233333,0.91 34.362,2.73 C36.2006667,4.55 37.12,6.86 37.12,9.66 C37.12,12.46 36.2006667,14.77 34.362,16.59 C32.5233333,18.41 30.1946667,19.32 27.376,19.32 Z M23.26,14.056 C24.3053333,15.2133333 25.6773333,15.792 27.376,15.792 C29.0746667,15.792 30.442,15.2133333 31.478,14.056 C32.514,12.8986667 33.032,11.4333333 33.032,9.66 C33.032,7.88666667 32.514,6.42133333 31.478,5.264 C30.442,4.10666667 29.0746667,3.528 27.376,3.528 C25.6586667,3.528 24.282,4.10666667 23.246,5.264 C22.21,6.42133333 21.692,7.88666667 21.692,9.66 C21.692,11.4333333 22.2146667,12.8986667 23.26,14.056 Z" id="Shape"></path>
                    <path d="M48.312,18.984 L40.92,18.984 L40.92,0.308 L48.284,0.308 C51.2146667,0.308 53.5993333,1.16666667 55.438,2.884 C57.2766667,4.60133333 58.196,6.85066667 58.196,9.632 C58.196,12.4506667 57.2813333,14.714 55.452,16.422 C53.6226667,18.13 51.2426667,18.984 48.312,18.984 Z M48.284,15.484 C50.076,15.484 51.4993333,14.924 52.554,13.804 C53.6086667,12.684 54.136,11.2933333 54.136,9.632 C54.136,7.93333333 53.6273333,6.538 52.61,5.446 C51.5926667,4.354 50.16,3.808 48.312,3.808 L44.896,3.808 L44.896,15.484 L48.284,15.484 Z" id="Shape"></path>
                </g>
            </g>
        </g>
    </g>
</svg>