<?xml version="1.0" encoding="UTF-8"?>
<svg width="365px" height="100px" viewBox="0 0 365 100" version="1.1" xmlns="http://www.w3.org/2000/svg" xmlns:xlink="http://www.w3.org/1999/xlink">
    <title>kujira-orca</title>
    <g id="kujira-orca" stroke="none" stroke-width="1" fill="none" fill-rule="evenodd">
        <g id="kujira" transform="translate(-0.000000, 13.000000)" fill="#FFFFFF" fill-rule="nonzero">
            <polygon id="Path" points="9.44564047 53.8482239 9.44564047 36.6523143 14.1280947 31.1625404 32.212056 53.8482239 43.8374596 53.8482239 20.3444564 25.4305705 42.2228202 0 30.5166846 0 9.44564047 25.6727664 9.44564047 0 0 0 0 53.8482239"></polygon>
            <path d="M74.8116254,54.8170075 C90.3928956,54.8170075 98.0624327,45.9364909 98.0624327,32.5349839 L98.0624327,0 L88.5360603,0 L88.5360603,32.2927879 C88.5360603,40.8503767 83.7728741,46.4208827 74.8116254,46.4208827 C65.7696448,46.4208827 61.0064586,40.8503767 61.0064586,32.2927879 L61.0064586,0 L51.4800861,0 L51.4800861,32.6157158 C51.4800861,45.8557589 59.1496233,54.8170075 74.8116254,54.8170075 Z" id="Path"></path>
            <path d="M105.854236,75 C116.26866,75 124.018929,69.2680301 124.018929,56.9967707 L124.018929,0 L114.573289,0 L114.573289,56.8353068 C114.573289,62.7287406 110.94035,66.6038751 105.127648,66.6038751 C101.010318,66.6038751 98.1039671,64.5048439 95.9242039,62.1636168 L91.5646775,69.3487621 C95.3590801,73.3853606 100.28373,75 105.854236,75 Z" id="Path"></path>
            <polygon id="Path" points="149.974258 53.8482239 149.974258 0 140.528617 0 140.528617 53.8482239"></polygon>
            <path d="M190.138413,0 C200.795033,0 207.737982,6.94294941 207.737982,16.8729817 C207.737982,26.4800861 201.440889,31.6469322 194.982331,32.6964478 L208.141642,53.8482239 L197.242826,53.8482239 L185.294495,33.7459634 L175.929586,33.7459634 L175.929586,53.8482239 L166.483946,53.8482239 L166.483946,0 Z M188.846701,8.3153929 L175.929586,8.3153929 L175.929586,25.4305705 L188.846701,25.4305705 C194.175011,25.4305705 198.050146,22.0398278 198.050146,16.8729817 C198.050146,11.7061356 194.175011,8.3153929 188.846701,8.3153929 Z" id="Combined-Shape"></path>
            <path d="M249.516777,0 L270.668553,53.8482239 L259.931201,53.8482239 L255.975334,43.5145318 L231.271351,43.5145318 L227.315485,53.8482239 L216.578133,53.8482239 L237.729909,0 L249.516777,0 Z M243.623343,9.52637244 L233.935506,35.1991389 L253.311179,35.1991389 L243.623343,9.52637244 Z" id="Combined-Shape"></path>
        </g>
        <path d="M177.585224,99 C183.207057,99 187.170448,94.8960624 187.170448,89.3023392 C187.170448,83.708616 183.207057,79.6046784 177.585224,79.6046784 C171.963392,79.6046784 168,83.708616 168,89.3023392 C168,94.8960624 171.963392,99 177.585224,99 Z M177.585224,96.0766472 C173.790487,96.0766472 171.373099,93.1532943 171.373099,89.3023392 C171.373099,85.4232749 173.790487,82.5280312 177.585224,82.5280312 C181.351852,82.5280312 183.797349,85.4232749 183.797349,89.3023392 C183.797349,93.1532943 181.351852,96.0766472 177.585224,96.0766472 Z M202.670643,98.6626901 L202.670643,91.6635088 L205.931306,91.6635088 L210.091462,98.6626901 L213.886199,98.6626901 L209.304405,91.2980897 C211.553138,90.9326706 213.745653,89.1336842 213.745653,85.788694 C213.745653,82.3312671 211.328265,79.9138791 207.617856,79.9138791 L199.381871,79.9138791 L199.381871,98.6626901 L202.670643,98.6626901 Z M207.168109,88.7682651 L202.670643,88.7682651 L202.670643,82.8091228 L207.168109,82.8091228 C209.023314,82.8091228 210.372554,83.9897076 210.372554,85.788694 C210.372554,87.5876803 209.023314,88.7682651 207.168109,88.7682651 Z M235.064444,99 C238.859181,99 241.164133,97.0323587 242.5977,94.7836257 L239.786784,93.3500585 C238.88729,94.9241715 237.088304,96.0766472 235.064444,96.0766472 C231.354035,96.0766472 228.599337,93.2376218 228.599337,89.3023392 C228.599337,85.3670565 231.354035,82.5280312 235.064444,82.5280312 C237.088304,82.5280312 238.88729,83.708616 239.786784,85.2546199 L242.5977,83.8210526 C241.192242,81.5723197 238.859181,79.6046784 235.064444,79.6046784 C229.52694,79.6046784 225.226238,83.539961 225.226238,89.3023392 C225.226238,95.0647173 229.52694,99 235.064444,99 Z M255.90538,98.6626901 L257.282729,95.0647173 L265.884133,95.0647173 L267.261481,98.6626901 L271,98.6626901 L263.6354,79.9138791 L259.531462,79.9138791 L252.166862,98.6626901 L255.90538,98.6626901 Z M264.95653,92.1694737 L258.210331,92.1694737 L261.583431,83.2307602 L264.95653,92.1694737 Z" id="ORCA" fill="#FFFFFF" fill-rule="nonzero"></path>
        <circle id="Oval" fill="#E53935" cx="325" cy="40" r="40"></circle>
        <path d="M337.889924,31.5925563 C337.878445,32.5148925 338.240898,32.7714721 338.916918,32.4955815 C339.122451,32.4117204 339.322043,32.2977451 339.499759,32.1647288 C340.940386,31.0853389 342.106337,29.7700307 342.866488,28.1268409 C343.023407,27.7876156 343.131305,27.4059872 343.167092,27.034622 C343.240824,26.2715002 342.838805,25.9900728 342.134021,26.2744711 C341.927947,26.3576569 341.728355,26.4687964 341.545508,26.5956007 C340.056806,27.6281311 338.922319,28.9642357 338.179184,30.6172836 C338.016458,30.9791959 337.949748,31.3843217 337.889924,31.5925563 M330.695702,44.8463789 C329.367835,45.7082163 328.101817,46.6470276 326.731547,47.3947546 C323.899583,48.9399041 320.771607,49.471294 317.608926,49.8433344 C315.957634,50.0377947 314.298374,50.2079475 312.666527,50.515573 C309.409182,51.1298786 308.200151,52.9503785 308.772594,56.3189988 C308.954496,56.1981363 309.112224,56.1011762 309.261581,55.9928726 C312.172679,53.8774412 315.383705,53.2990567 318.857929,54.1529266 C319.350831,54.2740592 319.832796,54.5010647 320.269522,54.7629109 C320.482483,54.8905255 320.715565,55.22732 320.690717,55.4402811 C320.66614,55.6512166 320.360675,55.8999637 320.122461,56.0032708 C319.094522,56.4493142 318.010946,56.7782763 317.012581,57.2792817 C315.15697,58.2103957 313.728767,59.5729685 313.199403,61.6684137 C312.795762,63.2664995 313.035192,64.8466248 313.491903,66.3929897 C313.841527,67.576767 314.26907,68.7374522 314.652589,69.9115065 C314.785065,70.3170373 314.927399,70.725404 314.996405,71.1437638 C315.082697,71.6685367 315.231648,72.2569142 314.722945,72.6521819 C314.17508,73.0776989 313.473133,73.1106491 312.939447,72.7627812 C311.778762,72.0061414 310.582696,71.2434247 309.604452,70.2771999 C305.397357,66.1218255 303.117714,61.0720686 302.852762,55.1367069 C302.660192,50.8227933 303.652885,46.7537107 305.334157,42.8192649 C306.007476,41.2434609 307.218802,40.2307817 308.711015,39.480894 C309.895332,38.8856293 311.072493,38.2730792 312.227776,37.6239328 C313.281238,37.0319091 314.168328,36.2370524 314.78493,35.1814299 C314.975744,34.8548986 315.144276,34.5012238 315.244072,34.1383662 C315.486472,33.2565426 314.979795,32.6306234 314.101213,32.8687022 C313.20818,33.1106973 312.311232,33.4853036 311.540008,33.9907654 C310.628475,34.5881908 309.849958,35.388179 308.950309,36.1542717 C309.027418,35.8660923 309.092238,35.6272032 309.155033,35.3879089 C309.526128,33.9768561 309.169482,32.8069881 307.93655,32.0419757 C307.088757,31.5157174 306.127123,31.1592068 305.191013,30.7910826 C302.937163,29.9052077 300.655225,29.0895546 298.41461,28.1720799 C297.808947,27.9240079 297.256626,27.4699971 296.776012,27.0100443 C296.081356,26.345098 296.20789,25.6673227 297.059059,25.2212793 C298.388547,24.5244631 299.857938,24.4090022 301.314905,24.3177139 C305.438409,24.0592437 309.55003,24.3183891 313.628431,24.8912369 C317.048232,25.3715809 320.262229,24.7805025 323.354284,23.4117178 C326.002996,22.239284 328.588778,20.9254613 331.208591,19.6876672 C333.88161,18.4248904 336.624852,17.3769652 339.598744,17.0835192 C342.670002,16.7804851 345.602437,17.3039076 348.387406,18.6239422 C349.384961,19.0968589 349.714058,19.9627476 349.668144,21.0175599 C349.562541,23.4473689 348.773491,25.6878491 347.722325,27.840417 C345.714252,31.952713 343.037991,35.5571164 339.48666,38.481989 C339.335548,38.6064977 339.168636,38.8445765 339.182005,39.0160797 C339.395101,41.7267759 338.722592,44.2867652 337.849141,46.802866 C336.753411,49.9593354 335.367206,52.9772518 333.276352,55.6181313 C332.890133,56.1059026 332.428694,56.558293 331.927554,56.9258771 C331.004002,57.6029772 330.166743,57.3443719 329.956077,56.2235241 C329.734068,55.0431229 329.592679,53.8031681 329.699633,52.6147994 C329.925153,50.1113926 330.336085,47.6245959 330.670179,45.1309122 C330.684898,45.020988 330.690165,44.9097135 330.695702,44.8463789" id="Fill-1-Copy-3" fill="#1F2937"></path>
    </g>
</svg>