<?xml version="1.0" encoding="UTF-8"?>
<svg width="451px" height="170px" viewBox="0 0 451 170" version="1.1" xmlns="http://www.w3.org/2000/svg" xmlns:xlink="http://www.w3.org/1999/xlink">
    <title>Kujira Whale Dark</title>
    <defs>
        <linearGradient x1="43.6775835%" y1="10.4631465%" x2="18.8138057%" y2="36.5233612%" id="linearGradient-1">
            <stop stop-color="#FFFFFF" offset="0%"></stop>
            <stop stop-color="#CFD8DC" offset="100%"></stop>
        </linearGradient>
        <linearGradient x1="21.8084907%" y1="25.5110202%" x2="27.5518871%" y2="82.7557061%" id="linearGradient-2">
            <stop stop-color="#607D8B" offset="0%"></stop>
            <stop stop-color="#546E7A" offset="100%"></stop>
        </linearGradient>
        <linearGradient x1="26.2931572%" y1="19.0917553%" x2="32.7298737%" y2="88.765842%" id="linearGradient-3">
            <stop stop-color="#607D8B" offset="0%"></stop>
            <stop stop-color="#546E7A" offset="100%"></stop>
        </linearGradient>
        <linearGradient x1="48.069127%" y1="50%" x2="50%" y2="94.7694514%" id="linearGradient-4">
            <stop stop-color="#607D8B" offset="0%"></stop>
            <stop stop-color="#546E7A" offset="100%"></stop>
        </linearGradient>
    </defs>
    <g id="Kujira-Whale-Dark" stroke="none" stroke-width="1" fill="none" fill-rule="evenodd">
        <g id="kujira" transform="translate(180.000000, 84.000000)" fill="#546E7A" fill-rule="nonzero">
            <polygon id="Path" points="9.44564047 53.8482239 9.44564047 36.6523143 14.1280947 31.1625404 32.212056 53.8482239 43.8374596 53.8482239 20.3444564 25.4305705 42.2228202 0 30.5166846 0 9.44564047 25.6727664 9.44564047 0 0 0 0 53.8482239"></polygon>
            <path d="M74.8116254,54.8170075 C90.3928956,54.8170075 98.0624327,45.9364909 98.0624327,32.5349839 L98.0624327,0 L88.5360603,0 L88.5360603,32.2927879 C88.5360603,40.8503767 83.7728741,46.4208827 74.8116254,46.4208827 C65.7696448,46.4208827 61.0064586,40.8503767 61.0064586,32.2927879 L61.0064586,0 L51.4800861,0 L51.4800861,32.6157158 C51.4800861,45.8557589 59.1496233,54.8170075 74.8116254,54.8170075 Z" id="Path"></path>
            <path d="M105.854236,75 C116.26866,75 124.018929,69.2680301 124.018929,56.9967707 L124.018929,0 L114.573289,0 L114.573289,56.8353068 C114.573289,62.7287406 110.94035,66.6038751 105.127648,66.6038751 C101.010318,66.6038751 98.1039671,64.5048439 95.9242039,62.1636168 L91.5646775,69.3487621 C95.3590801,73.3853606 100.28373,75 105.854236,75 Z" id="Path"></path>
            <polygon id="Path" points="149.974258 53.8482239 149.974258 0 140.528617 0 140.528617 53.8482239"></polygon>
            <path d="M190.138413,0 C200.795033,0 207.737982,6.94294941 207.737982,16.8729817 C207.737982,26.4800861 201.440889,31.6469322 194.982331,32.6964478 L208.141642,53.8482239 L197.242826,53.8482239 L185.294495,33.7459634 L175.929586,33.7459634 L175.929586,53.8482239 L166.483946,53.8482239 L166.483946,0 Z M188.846701,8.3153929 L175.929586,8.3153929 L175.929586,25.4305705 L188.846701,25.4305705 C194.175011,25.4305705 198.050146,22.0398278 198.050146,16.8729817 C198.050146,11.7061356 194.175011,8.3153929 188.846701,8.3153929 Z" id="Combined-Shape"></path>
            <path d="M249.516777,0 L270.668553,53.8482239 L259.931201,53.8482239 L255.975334,43.5145318 L231.271351,43.5145318 L227.315485,53.8482239 L216.578133,53.8482239 L237.729909,0 L249.516777,0 Z M243.623343,9.52637244 L233.935506,35.1991389 L253.311179,35.1991389 L243.623343,9.52637244 Z" id="Combined-Shape"></path>
        </g>
        <g id="whale-logo">
            <path d="M155.851421,24.1409916 C117.777361,-5.49191959 80.9017748,-4.44981304 45.224663,27.2673112 C9.54755132,58.9844355 10.4416798,98.9648439 47.9070485,147.208537 L56.6102758,58.7057941 L150.429621,37.61953 L155.851421,24.1409916 Z" id="belly" fill="url(#linearGradient-1)"></path>
            <path d="M72.6510274,6.215534 C47.8407791,-0.173238717 19.7004004,8.53973662 23.5119651,19.921029 C24.7283612,23.553175 33.6867414,17.6930466 45.5110064,21.8837285 C51.28333,19.2435458 70.8024187,8.75298068 72.6510274,6.215534 Z" id="right-fin" fill="#546E7A"></path>
            <path d="M102.054724,0 C123.25542,0 142.643806,7.75714917 157.534864,20.5872186 L155.073337,26.482661 C141.057781,13.783829 122.459984,6.04743083 102.054724,6.04743083 C58.4376209,6.04743083 23.0789729,41.3957001 23.0789729,85 C23.0789729,128.6043 58.4376209,163.952569 102.054724,163.952569 C106.794542,163.952569 111.436837,163.535145 115.946832,162.735062 L114.303467,169.124512 C110.30383,169.701414 106.214156,170 102.054724,170 C55.0967364,170 17.0297665,131.944204 17.0297665,85 C17.0297665,38.0557963 55.0967364,0 102.054724,0 Z" id="Combined-Shape" fill="url(#linearGradient-2)"></path>
            <path d="M99.5342209,13.7747036 C119.688628,13.7747036 137.997269,21.8334081 151.530498,34.9633256 L149.643813,39.4777734 C136.793523,26.283402 119.159454,18.1422925 99.7022544,18.1422925 C60.3848512,18.1422925 28.5117984,51.3847074 28.5117984,92.3913043 C28.5117984,133.397901 60.3848512,166.640316 99.7022544,166.640316 C105.662096,166.640316 111.450887,165.876494 116.983542,164.437589 L116.686426,165.651301 C111.176204,166.957598 105.434303,167.648221 99.5342209,167.648221 C57.8659675,167.648221 24.087174,133.202461 24.087174,90.7114625 C24.087174,48.2204638 57.8659675,13.7747036 99.5342209,13.7747036 Z" id="Combined-Shape" fill="url(#linearGradient-3)"></path>
            <path d="M71.676673,145.618266 C58.7931228,139.356924 45.8215731,114.589423 78.5706406,89.5480884 C107.922931,67.1040747 159.678706,75.8711222 159.678706,24.8993209 C159.678706,23.390141 157.219826,18.4159767 155.219745,20.4410638 C151.405937,24.3025534 144.554617,37.450679 126.570336,35.1512758 C80.441544,29.2534201 26.390493,30.2173986 34.3045589,122.072516 C34.3045589,140.386407 61.0730104,153.409289 71.676673,145.618266 Z" id="Path-2" fill="url(#linearGradient-4)"></path>
            <path d="M64.0142327,40.5302885 C54.1521839,38.5897829 44.4406717,37.61953 34.8796959,37.61953 C1.872088,37.61953 -1.98282202,60.496208 0.68823486,62.79821 C4.13476433,65.7685391 28.4776083,49.1320424 40.1812926,70.200404 C47.9837489,84.2459785 55.9280622,74.35594 64.0142327,40.5302885 Z" id="left-fin" fill="#607D8B"></path>
            <path d="M147.542367,88.6153119 L147.542367,84.1053016 L133.252181,84.1053016 C132.48539,81.1911411 131.7186,78.6239045 130.882101,76.2648221 L126.072233,77.0974394 C126.908732,79.1789826 127.745231,81.538065 128.512021,84.1053016 L113.385336,84.1053016 L113.385336,88.6153119 L147.542367,88.6153119 Z M110.945549,122.128158 L110.945549,93.3334765 L103.905018,93.3334765 C105.368891,91.1825485 106.832763,88.5459271 108.296636,85.3542275 L108.296636,82.0237584 L96.7947788,82.0237584 C97.4221528,80.6360629 97.9798186,79.2483674 98.5374844,77.7912872 L94.076158,76.4035917 C91.9849112,83.2032995 88.7086246,88.6846967 84.3170064,92.9171679 L85.3626298,97.8434869 C86.2688367,97.0108696 87.1750437,96.1782523 88.0115424,95.2762502 L88.0115424,122.128158 L110.945549,122.128158 Z M99.0951502,93.3334765 L89.754248,93.3334765 C91.5666619,91.1131638 93.3093675,88.6153119 94.8429485,85.9786905 L103.626185,85.9786905 C102.092604,88.7540815 100.628731,91.2519333 99.0951502,93.3334765 Z M127.814939,140.098814 C131.30035,140.098814 133.112764,138.156041 133.112764,134.339878 L133.112764,114.565217 L144.196372,114.565217 L144.196372,94.8599416 L117.079872,94.8599416 L117.079872,114.565217 L128.233188,114.565217 L128.233188,133.160337 C128.233188,134.894956 127.536106,135.796958 126.141942,135.796958 C124.538653,135.796958 122.865655,135.658189 121.192658,135.450034 L122.168573,140.098814 L127.814939,140.098814 Z M97.491861,105.683966 L92.3334524,105.683966 L92.3334524,97.4271782 L97.491861,97.4271782 L97.491861,105.683966 Z M106.623639,105.683966 L101.534938,105.683966 L101.534938,97.4271782 L106.623639,97.4271782 L106.623639,105.683966 Z M139.456213,110.193977 L121.820032,110.193977 L121.820032,99.3005671 L139.456213,99.3005671 L139.456213,110.193977 Z M106.623639,117.965071 L101.534938,117.965071 L101.534938,109.708283 L106.623639,109.708283 L106.623639,117.965071 Z M97.491861,117.965071 L92.3334524,117.965071 L92.3334524,109.708283 L97.491861,109.708283 L97.491861,117.965071 Z M144.475205,136.907115 L148.169741,134.339878 C146.287619,129.899252 143.638706,124.764779 140.153295,118.867073 L136.458759,121.087386 C139.804754,126.846322 142.523375,132.119565 144.475205,136.907115 Z M115.267459,138.086656 C118.33462,133.299106 120.983533,127.609555 123.214196,121.087386 L119.171119,119.144612 C117.010164,125.389242 114.43096,130.801255 111.503214,135.38065 L115.267459,138.086656 Z M109.481676,133.368491 L112.897379,132.535874 C111.921464,129.205405 110.945549,126.291244 109.830217,123.793392 L106.55393,124.764779 C107.669262,127.54017 108.645177,130.384946 109.481676,133.368491 Z M102.092604,137.392808 L105.717432,136.976499 C105.299182,131.703257 104.532392,127.54017 103.41706,124.48724 L99.9316489,124.903549 C101.046981,127.817709 101.744063,131.980796 102.092604,137.392808 Z M88.7783329,139.266197 C90.2422056,135.172495 91.1484125,130.523715 91.5666619,125.250473 L87.8024177,124.764779 C87.4538766,129.760483 86.4779614,134.201108 84.9443805,138.086656 L88.7783329,139.266197 Z M94.6338238,138.43358 L98.2586515,138.017271 C98.1192351,132.535874 97.7706939,128.164633 97.2827364,124.972933 L93.9367415,125.389242 C94.2852827,128.442172 94.4944073,132.813413 94.6338238,138.43358 Z" id="鯨" fill="#E53935" fill-rule="nonzero"></path>
            <path d="M71.5275761,145.64314 C72.4334128,140.298041 73.9153525,136.366772 75.9733952,133.849332 C79.691241,129.301587 87.1371844,123.464852 88.675378,124.936881 C89.7278347,125.944067 88.7797719,127.619571 88.0410525,129.876017 C87.2581299,132.267483 86.3736154,135.073095 88.675378,139.837301 C91.6577576,146.010252 92.5618389,150.315294 91.3876218,152.752425 C98.3894417,151.716251 104.314133,153.460648 109.161696,157.985615 C116.43304,164.773066 124.063021,161.591291 120.645056,167.707584 C120.300646,168.323891 107.694937,171.676274 86.5421754,168.056215 C82.4829733,167.361528 76.1511511,164.525905 67.5467089,159.549345 C59.8936534,155.52474 54.9043693,152.508458 52.5788566,150.500499 C50.2533439,148.49254 48.4579118,145.650573 47.1925603,141.974599 L64.9879162,147.288255 C68.7202839,146.533793 70.705777,145.936173 70.9443954,145.495396 C70.968404,145.451047 71.5198196,145.688909 71.5275761,145.64314 Z" id="Path-3" fill="#546E7A"></path>
        </g>
    </g>
</svg>