<?xml version="1.0" encoding="UTF-8"?>
<svg width="400px" height="400px" viewBox="0 0 400 400" version="1.1" xmlns="http://www.w3.org/2000/svg" xmlns:xlink="http://www.w3.org/1999/xlink">
    <title>kujira-round@1,5x</title>
    <defs>
        <rect id="path-1" x="0" y="0" width="400" height="400" rx="200"></rect>
        <linearGradient x1="43.6812946%" y1="10.4631465%" x2="18.832111%" y2="36.5233612%" id="linearGradient-3">
            <stop stop-color="#FFFFFF" offset="0%"></stop>
            <stop stop-color="#CFD8DC" offset="100%"></stop>
        </linearGradient>
        <linearGradient x1="43.6812946%" y1="10.4631465%" x2="18.832111%" y2="36.5233612%" id="linearGradient-4">
            <stop stop-color="#263238" offset="0%"></stop>
            <stop stop-color="#263238" offset="100%"></stop>
        </linearGradient>
        <linearGradient x1="21.8250382%" y1="25.5110202%" x2="27.5650633%" y2="82.7557061%" id="linearGradient-5">
            <stop stop-color="#607D8B" offset="0%"></stop>
            <stop stop-color="#546E7A" offset="100%"></stop>
        </linearGradient>
        <linearGradient x1="21.8250382%" y1="25.5110202%" x2="27.5650633%" y2="82.7557061%" id="linearGradient-6">
            <stop stop-color="#263238" offset="0%"></stop>
            <stop stop-color="#263238" offset="100%"></stop>
        </linearGradient>
        <linearGradient x1="26.3070723%" y1="19.0917553%" x2="32.7400107%" y2="88.765842%" id="linearGradient-7">
            <stop stop-color="#607D8B" offset="0%"></stop>
            <stop stop-color="#546E7A" offset="100%"></stop>
        </linearGradient>
        <linearGradient x1="26.3070723%" y1="19.0917553%" x2="32.7400107%" y2="88.765842%" id="linearGradient-8">
            <stop stop-color="#263238" offset="0%"></stop>
            <stop stop-color="#263238" offset="100%"></stop>
        </linearGradient>
        <linearGradient x1="48.0702604%" y1="50%" x2="50%" y2="94.7694514%" id="linearGradient-9">
            <stop stop-color="#607D8B" offset="0%"></stop>
            <stop stop-color="#546E7A" offset="100%"></stop>
        </linearGradient>
        <linearGradient x1="48.0702604%" y1="50%" x2="50%" y2="94.7694514%" id="linearGradient-10">
            <stop stop-color="#263238" offset="0%"></stop>
            <stop stop-color="#263238" offset="100%"></stop>
        </linearGradient>
    </defs>
    <g id="Logo" stroke="none" stroke-width="1" fill="none" fill-rule="evenodd">
        <g id="Group-4" transform="translate(-910.000000, -410.000000)">
            <g id="kujira-round" transform="translate(910.000000, 410.000000)">
                <mask id="mask-2" fill="white">
                    <use xlink:href="#path-1"></use>
                </mask>
                <use id="Mask" fill="#263238" xlink:href="#path-1"></use>
                <path d="M386.266376,83.5217391 L386.266376,56.673913 L301.222707,56.673913 C296.659389,39.326087 292.09607,24.0434783 287.117904,10 L258.49345,14.9565217 C263.471616,27.3478261 268.449782,41.3913043 273.0131,56.673913 L182.991266,56.673913 L182.991266,83.5217391 L386.266376,83.5217391 Z M168.471616,283.021739 L168.471616,111.608696 L126.572052,111.608696 C135.283843,98.8043478 143.995633,83.1086957 152.707424,64.1086957 L152.707424,44.2826087 L84.2576419,44.2826087 C87.9912664,36.0217391 91.3100437,27.7608696 94.628821,19.0869565 L68.0786026,10.826087 C55.6331878,51.3043478 36.1353712,83.9347826 10,109.130435 L16.2227074,138.456522 C21.6157205,133.5 27.0087336,128.543478 31.9868996,123.173913 L31.9868996,283.021739 L168.471616,283.021739 Z M97.9475983,111.608696 L42.3580786,111.608696 C53.1441048,98.3913043 63.5152838,83.5217391 72.6419214,67.826087 L124.912664,67.826087 C115.786026,84.3478261 107.074236,99.2173913 97.9475983,111.608696 Z M268.864629,390 C289.606987,390 300.393013,378.434783 300.393013,355.717391 L300.393013,238 L366.353712,238 L366.353712,120.695652 L204.978166,120.695652 L204.978166,238 L271.353712,238 L271.353712,348.695652 C271.353712,359.021739 267.20524,364.391304 258.908297,364.391304 C249.366812,364.391304 239.41048,363.565217 229.454148,362.326087 L235.262009,390 L268.864629,390 Z M88.4061135,185.130435 L57.7074236,185.130435 L57.7074236,135.978261 L88.4061135,135.978261 L88.4061135,185.130435 Z M142.751092,185.130435 L112.467249,185.130435 L112.467249,135.978261 L142.751092,135.978261 L142.751092,185.130435 Z M338.144105,211.978261 L233.187773,211.978261 L233.187773,147.130435 L338.144105,147.130435 L338.144105,211.978261 Z M142.751092,258.23913 L112.467249,258.23913 L112.467249,209.086957 L142.751092,209.086957 L142.751092,258.23913 Z M88.4061135,258.23913 L57.7074236,258.23913 L57.7074236,209.086957 L88.4061135,209.086957 L88.4061135,258.23913 Z M368.0131,371 L390,355.717391 C378.799127,329.282609 363.034934,298.717391 342.292576,263.608696 L320.305677,276.826087 C340.218341,311.108696 356.39738,342.5 368.0131,371 Z M194.19214,378.021739 C212.445415,349.521739 228.209607,315.652174 241.484716,276.826087 L217.423581,265.26087 C204.563319,302.434783 189.213974,334.652174 171.790393,361.913043 L194.19214,378.021739 Z M159.759825,349.934783 L180.087336,344.978261 C174.279476,325.152174 168.471616,307.804348 161.834061,292.934783 L142.336245,298.717391 C148.973799,315.23913 154.781659,332.173913 159.759825,349.934783 Z M115.786026,373.891304 L137.358079,371.413043 C134.868996,340.021739 130.305677,315.23913 123.668122,297.065217 L102.925764,299.543478 C109.563319,316.891304 113.71179,341.673913 115.786026,373.891304 Z M36.5502183,385.043478 C45.2620087,360.673913 50.6550218,333 53.1441048,301.608696 L30.7423581,298.717391 C28.6681223,328.456522 22.860262,354.891304 13.7336245,378.021739 L36.5502183,385.043478 Z M71.3973799,380.086957 L92.9694323,377.608696 C92.139738,344.978261 90.0655022,318.956522 87.1615721,299.956522 L67.2489083,302.434783 C69.3231441,320.608696 70.5676856,346.630435 71.3973799,380.086957 Z" id="鯨" fill="#E53935" fill-rule="nonzero" mask="url(#mask-2)"></path>
                <g id="Group" mask="url(#mask-2)" opacity="0.75">
                    <g transform="translate(41.189723, 70.000000)" id="whale-copy" style="mix-blend-mode: multiply;">
                        <path d="M274.951191,42.6017499 C207.781394,-9.6916228 142.725932,-7.85261125 79.7848031,48.1187845 C16.8436745,104.09018 18.4210851,174.643842 84.517035,259.77977 L99.8711633,103.59846 L265.386117,66.3874059 L274.951191,42.6017499 Z" id="belly" fill="url(#linearGradient-4)"></path>
                        <path d="M128.170063,10.9685894 C84.4001234,-0.305715384 34.755208,15.0701234 41.4795242,35.1547571 C43.6254755,41.5644265 59.4297414,31.2230235 80.2899666,38.6183444 C90.47343,33.9591985 124.90877,15.4464365 128.170063,10.9685894 Z" id="right-fin" fill="#263238"></path>
                        <path d="M180.043708,0 C217.446453,0 251.651816,13.689623 277.922643,36.3317162 L273.578437,46.7340476 C248.852372,24.3243798 216.042389,10.6719368 180.043708,10.6719368 C103.094943,10.6719368 40.7156447,73.0512355 40.7156447,150 C40.7156447,226.948765 103.094943,289.328063 180.043708,289.328063 C188.405637,289.328063 196.595516,288.591432 204.551994,287.179522 L201.654279,298.454806 C194.597694,299.473009 187.382243,300 180.043708,300 C97.2009955,300 30.0437079,232.842712 30.0437079,150 C30.0437079,67.1572875 97.2009955,0 180.043708,0 Z" id="Combined-Shape" fill="url(#linearGradient-6)"></path>
                        <path d="M175.597068,24.3083004 C211.153233,24.3083004 243.45312,38.5295475 267.328279,61.6999956 L264.000435,69.6673088 C241.330057,46.3827414 210.219986,32.0158103 175.89351,32.0158103 C106.530224,32.0158103 50.3001696,90.6788954 50.3001696,163.043478 C50.3001696,235.408061 106.530224,294.071146 175.89351,294.071146 C186.407733,294.071146 196.620191,292.723239 206.380784,290.184023 L205.857688,292.325611 C196.136343,294.63098 186.006244,295.849802 175.597068,295.849802 C102.086439,295.849802 42.4943008,235.063167 42.4943008,160.079051 C42.4943008,85.0949361 102.086439,24.3083004 175.597068,24.3083004 Z" id="Combined-Shape" fill="url(#linearGradient-8)"></path>
                        <path d="M126.451119,256.973411 C103.722115,245.923983 80.8378645,202.216629 138.613373,158.026038 C190.396328,118.418955 281.703241,133.890216 281.703241,43.939978 C281.703241,41.2767195 277.365314,32.4987825 273.836794,36.0724656 C267.108521,42.886859 255.021505,66.0894336 223.293854,62.0316631 C141.913998,51.6236825 46.5577884,53.324821 60.5196876,215.422087 C60.5196876,247.740719 107.744266,270.722275 126.451119,256.973411 Z" id="Path-2" fill="url(#linearGradient-10)"></path>
                        <path d="M112.933134,71.5240385 C95.5346273,68.0996168 78.401695,66.3874059 61.5343372,66.3874059 C3.302715,66.3874059 -3.4980706,106.758014 1.21417561,110.820371 C7.29450118,116.062128 50.2398519,86.7036042 70.8873501,123.883066 C84.6523489,148.669374 98.6676103,131.216365 112.933134,71.5240385 Z" id="left-fin" fill="#263238"></path>
                        <path d="M126.188084,257.017305 C127.78615,247.584778 130.40057,240.647244 134.031344,236.204703 C140.590323,228.179271 153.726366,217.879151 156.440028,220.476849 C158.29676,222.254236 156.624199,225.211008 155.320959,229.192972 C153.939737,233.413206 152.379287,238.364286 156.440028,246.771707 C161.701506,257.665151 163.296476,265.262283 161.224936,269.563102 C173.577462,267.734561 184.029731,270.812908 192.581742,278.798144 C205.409759,290.775998 218.87048,285.161102 212.840548,295.95456 C212.232943,297.042161 189.994104,302.958131 152.676658,296.569792 C145.515463,295.343873 134.344939,290.339832 119.165086,281.557668 C105.663658,274.455424 96.8616237,269.132573 92.7589823,265.589116 C88.6563409,262.045659 85.4888613,257.030424 83.2565436,250.543409 L114.650895,259.920451 C121.235493,258.589047 124.738276,257.534424 125.159244,256.756581 C125.201599,256.678319 126.1744,257.098074 126.188084,257.017305 Z" id="Path-3" fill="#263238"></path>
                    </g>
                </g>
                <g id="Group" mask="url(#mask-2)">
                    <g transform="translate(49.189723, 60.000000)" id="whale-copy-2">
                        <path d="M274.951191,42.6017499 C207.781394,-9.6916228 142.725932,-7.85261125 79.7848031,48.1187845 C16.8436745,104.09018 18.4210851,174.643842 84.517035,259.77977 L99.8711633,103.59846 L265.386117,66.3874059 L274.951191,42.6017499 Z" id="belly" fill="url(#linearGradient-3)"></path>
                        <path d="M128.170063,10.9685894 C84.4001234,-0.305715384 34.755208,15.0701234 41.4795242,35.1547571 C43.6254755,41.5644265 59.4297414,31.2230235 80.2899666,38.6183444 C90.47343,33.9591985 124.90877,15.4464365 128.170063,10.9685894 Z" id="right-fin" fill="#546E7A"></path>
                        <path d="M180.043708,0 C217.446453,0 251.651816,13.689623 277.922643,36.3317162 L273.578437,46.7340476 C248.852372,24.3243798 216.042389,10.6719368 180.043708,10.6719368 C103.094943,10.6719368 40.7156447,73.0512355 40.7156447,150 C40.7156447,226.948765 103.094943,289.328063 180.043708,289.328063 C188.405637,289.328063 196.595516,288.591432 204.551994,287.179522 L201.654279,298.454806 C194.597694,299.473009 187.382243,300 180.043708,300 C97.2009955,300 30.0437079,232.842712 30.0437079,150 C30.0437079,67.1572875 97.2009955,0 180.043708,0 Z" id="Combined-Shape" fill="url(#linearGradient-5)"></path>
                        <path d="M175.597068,24.3083004 C211.153233,24.3083004 243.45312,38.5295475 267.328279,61.6999956 L264.000435,69.6673088 C241.330057,46.3827414 210.219986,32.0158103 175.89351,32.0158103 C106.530224,32.0158103 50.3001696,90.6788954 50.3001696,163.043478 C50.3001696,235.408061 106.530224,294.071146 175.89351,294.071146 C186.407733,294.071146 196.620191,292.723239 206.380784,290.184023 L205.857688,292.325611 C196.136343,294.63098 186.006244,295.849802 175.597068,295.849802 C102.086439,295.849802 42.4943008,235.063167 42.4943008,160.079051 C42.4943008,85.0949361 102.086439,24.3083004 175.597068,24.3083004 Z" id="Combined-Shape" fill="url(#linearGradient-7)"></path>
                        <path d="M126.451119,256.973411 C103.722115,245.923983 80.8378645,202.216629 138.613373,158.026038 C190.396328,118.418955 281.703241,133.890216 281.703241,43.939978 C281.703241,41.2767195 277.365314,32.4987825 273.836794,36.0724656 C267.108521,42.886859 255.021505,66.0894336 223.293854,62.0316631 C141.913998,51.6236825 46.5577884,53.324821 60.5196876,215.422087 C60.5196876,247.740719 107.744266,270.722275 126.451119,256.973411 Z" id="Path-2" fill="url(#linearGradient-9)"></path>
                        <path d="M112.933134,71.5240385 C95.5346273,68.0996168 78.401695,66.3874059 61.5343372,66.3874059 C3.302715,66.3874059 -3.4980706,106.758014 1.21417561,110.820371 C7.29450118,116.062128 50.2398519,86.7036042 70.8873501,123.883066 C84.6523489,148.669374 98.6676103,131.216365 112.933134,71.5240385 Z" id="left-fin" fill="#607D8B"></path>
                        <path d="M126.188084,257.017305 C127.78615,247.584778 130.40057,240.647244 134.031344,236.204703 C140.590323,228.179271 153.726366,217.879151 156.440028,220.476849 C158.29676,222.254236 156.624199,225.211008 155.320959,229.192972 C153.939737,233.413206 152.379287,238.364286 156.440028,246.771707 C161.701506,257.665151 163.296476,265.262283 161.224936,269.563102 C173.577462,267.734561 184.029731,270.812908 192.581742,278.798144 C205.409759,290.775998 218.87048,285.161102 212.840548,295.95456 C212.232943,297.042161 189.994104,302.958131 152.676658,296.569792 C145.515463,295.343873 134.344939,290.339832 119.165086,281.557668 C105.663658,274.455424 96.8616237,269.132573 92.7589823,265.589116 C88.6563409,262.045659 85.4888613,257.030424 83.2565436,250.543409 L114.650895,259.920451 C121.235493,258.589047 124.738276,257.534424 125.159244,256.756581 C125.201599,256.678319 126.1744,257.098074 126.188084,257.017305 Z" id="Path-3" fill="#546E7A"></path>
                    </g>
                </g>
            </g>
        </g>
    </g>
</svg>