<?xml version="1.0" encoding="UTF-8"?>
<svg width="100px" height="100px" viewBox="0 0 100 100" version="1.1" xmlns="http://www.w3.org/2000/svg" xmlns:xlink="http://www.w3.org/1999/xlink">
    <title>kujira-pilot-mobile</title>
    <g id="kujira-pilot-mobile" stroke="none" stroke-width="1" fill="none" fill-rule="evenodd">
        <path d="M50.9666893,0 C60.3825062,0 68.8323136,2.08207071 76.3161115,6.24621212 C83.7999094,10.4103535 89.6181736,16.1889348 93.7709041,23.5819559 C97.9236347,30.974977 100,39.2809917 100,48.5 C100,57.7190083 97.9236347,66.025023 93.7709041,73.4180441 C89.6181736,80.8110652 83.7999094,86.5896465 76.3161115,90.7537879 C68.8323136,94.9179293 60.3825062,97 50.9666893,97 C48.5897519,97 46.2699586,96.8629756 44.0073093,96.5889269 L53.8129152,90.7659962 C57.1742949,88.7652932 59.2310296,85.1486378 59.2310296,81.224182 L59.2310296,67.3577715 C79.4453544,55.1996534 80.1820951,36.3314855 78.0639654,24.8766915 C77.7416413,23.0883708 76.3602524,21.6971128 74.5644468,21.3654578 L73.7745455,21.2253121 C62.2930053,19.2856873 44.0486582,20.4383173 32.0637138,40.1174311 L18.3726146,40.1174311 C14.4632839,40.1174311 10.8501844,42.3182043 8.86098431,45.6886193 L2.55059313,56.3618887 C2.18353104,53.8087951 2,51.1881655 2,48.5 C2,41.5968779 3.21028779,35.1391185 5.63086336,29.1267218 C8.05143893,23.1143251 11.3936098,17.9815197 15.6573759,13.7283058 C19.9211421,9.47509183 25.0954,6.12373737 31.1801496,3.67424242 C37.2648992,1.22474747 43.8604124,0 50.9666893,0 Z M59,34 C62.315,34 65,36.685 65,40 C65,43.315 62.315,46 59,46 C55.685,46 53,43.315 53,40 C53,36.685 55.685,34 59,34 Z" id="Shape" fill="#E53935" fill-rule="nonzero"></path>
        <path d="M25.1092054,92.6688153 C17.6443088,100.134593 0.0718215827,98.9280025 0.0718215827,98.9280025 C0.0718215827,98.9280025 -1.13345007,81.2212898 6.33084331,73.8912537 C11.5170614,68.7029154 19.9214793,68.7029154 25.1092054,73.8912537 C30.2969315,79.079592 30.2969315,87.480477 25.1092054,92.6688153 Z M18.6625726,80.3377318 C16.8636937,78.5540894 13.9714092,78.5540894 12.18348,80.3377318 C9.60873671,82.9193194 10.0248252,88.9743158 10.0248252,88.9743158 C10.0248252,88.9743158 16.0815724,89.3967574 18.6625726,86.8151698 C20.4458091,85.0315274 20.4458091,82.1370201 18.6625726,80.3377318 Z" id="Shape" fill="#E53935" fill-rule="nonzero"></path>
    </g>
</svg>