<?xml version="1.0" encoding="UTF-8"?>
<svg width="365px" height="88px" viewBox="0 0 365 88" version="1.1" xmlns="http://www.w3.org/2000/svg" xmlns:xlink="http://www.w3.org/1999/xlink">
    <title>kujira-fin</title>
    <g id="kujira-fin" stroke="none" stroke-width="1" fill="none" fill-rule="evenodd">
        <g id="kujira" transform="translate(-0.000000, 13.000000)" fill="#FFFFFF" fill-rule="nonzero">
            <polygon id="Path" points="9.44564047 53.8482239 9.44564047 36.6523143 14.1280947 31.1625404 32.212056 53.8482239 43.8374596 53.8482239 20.3444564 25.4305705 42.2228202 0 30.5166846 0 9.44564047 25.6727664 9.44564047 0 0 0 0 53.8482239"></polygon>
            <path d="M74.8116254,54.8170075 C90.3928956,54.8170075 98.0624327,45.9364909 98.0624327,32.5349839 L98.0624327,0 L88.5360603,0 L88.5360603,32.2927879 C88.5360603,40.8503767 83.7728741,46.4208827 74.8116254,46.4208827 C65.7696448,46.4208827 61.0064586,40.8503767 61.0064586,32.2927879 L61.0064586,0 L51.4800861,0 L51.4800861,32.6157158 C51.4800861,45.8557589 59.1496233,54.8170075 74.8116254,54.8170075 Z" id="Path"></path>
            <path d="M105.854236,75 C116.26866,75 124.018929,69.2680301 124.018929,56.9967707 L124.018929,0 L114.573289,0 L114.573289,56.8353068 C114.573289,62.7287406 110.94035,66.6038751 105.127648,66.6038751 C101.010318,66.6038751 98.1039671,64.5048439 95.9242039,62.1636168 L91.5646775,69.3487621 C95.3590801,73.3853606 100.28373,75 105.854236,75 Z" id="Path"></path>
            <polygon id="Path" points="149.974258 53.8482239 149.974258 0 140.528617 0 140.528617 53.8482239"></polygon>
            <path d="M190.138413,0 C200.795033,0 207.737982,6.94294941 207.737982,16.8729817 C207.737982,26.4800861 201.440889,31.6469322 194.982331,32.6964478 L208.141642,53.8482239 L197.242826,53.8482239 L185.294495,33.7459634 L175.929586,33.7459634 L175.929586,53.8482239 L166.483946,53.8482239 L166.483946,0 Z M188.846701,8.3153929 L175.929586,8.3153929 L175.929586,25.4305705 L188.846701,25.4305705 C194.175011,25.4305705 198.050146,22.0398278 198.050146,16.8729817 C198.050146,11.7061356 194.175011,8.3153929 188.846701,8.3153929 Z" id="Combined-Shape"></path>
            <path d="M249.516777,0 L270.668553,53.8482239 L259.931201,53.8482239 L255.975334,43.5145318 L231.271351,43.5145318 L227.315485,53.8482239 L216.578133,53.8482239 L237.729909,0 L249.516777,0 Z M243.623343,9.52637244 L233.935506,35.1991389 L253.311179,35.1991389 L243.623343,9.52637244 Z" id="Combined-Shape"></path>
        </g>
        <path d="M325.168553,0 C347.259943,0 365.168553,17.90861 365.168553,40 C365.168553,62.09139 347.259943,80 325.168553,80 C303.077163,80 285.168553,62.09139 285.168553,40 C285.168553,17.90861 303.077163,0 325.168553,0 Z M325.168553,3.73333333 C305.139026,3.73333333 288.901886,19.9704731 288.901886,40 C288.901886,60.0295269 305.139026,76.2666667 325.168553,76.2666667 C345.19808,76.2666667 361.435219,60.0295269 361.435219,40 C361.435219,19.9704731 345.19808,3.73333333 325.168553,3.73333333 Z" id="Oval" fill="#E53935" fill-rule="nonzero"></path>
        <g id="FIN-Copy" transform="translate(300.980553, 30.662000)" fill="#E53935" fill-rule="nonzero">
            <polygon id="Path" points="3.976 18.676 0 18.676 0 0 13.216 0 13.216 3.5 3.976 3.5 3.976 7.42 13.02 7.42 13.02 10.92 3.976 10.92"></polygon>
            <polygon id="Path" points="23.964 18.676 19.988 18.676 19.988 0 23.964 0"></polygon>
            <polygon id="Path" points="48.376 18.676 44.54 18.676 35.636 6.496 35.636 18.676 31.66 18.676 31.66 0 35.748 0 44.4 11.732 44.4 0 48.376 0"></polygon>
        </g>
    </g>
</svg>